<?xml version="1.0" standalone="no"?><!DOCTYPE svg PUBLIC "-//W3C//DTD SVG 1.1//EN" "http://www.w3.org/Graphics/SVG/1.1/DTD/svg11.dtd"><svg t="1690019445693" class="icon" viewBox="0 0 1024 1024" version="1.1" xmlns="http://www.w3.org/2000/svg" p-id="5073" width="128" height="128" xmlns:xlink="http://www.w3.org/1999/xlink"><path d="M907.3664 412.26752V1024h-52.736a103.7824 103.7824 0 0 0 2.048-20.48V433.01888A216.15616 216.15616 0 0 1 800.9216 440.32a220.54912 220.54912 0 0 1-190.1824-327.68h-197.4784A220.54912 220.54912 0 0 1 223.0784 440.32a216.14592 216.14592 0 0 1-55.7568-7.30112V1003.52a103.8592 103.8592 0 0 0 2.048 20.48h-52.736V412.26752A220.55936 220.55936 0 0 1 223.0784 0a216.20736 216.20736 0 0 1 156.07808 66.56h265.68704A216.19712 216.19712 0 0 1 800.9216 0a220.55936 220.55936 0 0 1 106.4448 412.26752z m-36.352 16.384c-0.62976 0.21504-1.25952 0.44032-1.8944 0.65024 0.60928-0.24576 1.23904-0.4608 1.8688-0.67584z m12.14976-4.56192l-0.9728 0.38912zM141.824 424.448l-0.9728-0.38912z m13.07136 4.82304c-0.63488-0.20992-1.26464-0.43008-1.89952-0.65024l1.90976 0.65536zM223.0784 51.2a168.96 168.96 0 1 0 167.2704 168.96 168.12032 168.12032 0 0 0-167.2704-168.96z m182.9376 49.30048l-0.24576-0.38912z m-17.09056-23.1424l-0.35328-0.41472z m246.20032 0l0.35328-0.41472z m-17.09056 23.1424l0.24576-0.38912zM800.9216 51.2a168.96 168.96 0 1 0 167.2704 168.96 168.12032 168.12032 0 0 0-167.2704-168.96z m0 291.84a122.88 122.88 0 1 1 121.6512-122.88 122.27072 122.27072 0 0 1-121.6512 122.88zM223.0784 343.04a122.88 122.88 0 1 1 121.6512-122.88 122.27072 122.27072 0 0 1-121.6512 122.88z m159.6672 261.12h-25.344a12.8 12.8 0 0 1 0-25.6h25.344a12.8 12.8 0 0 1 0 25.6z m12.672 79.36a12.672 12.672 0 1 1-25.344 0v-30.72a12.672 12.672 0 1 1 25.344 0v30.72z m45.6192-64v15.36a15.2064 15.2064 0 1 1-30.4128 0v-15.36a15.2064 15.2064 0 1 1 30.4128 0z m152.064 15.36v-15.36a15.2064 15.2064 0 1 1 30.4128 0v15.36a15.2064 15.2064 0 1 1-30.4128 0z m58.2912 5.12a12.73344 12.73344 0 0 1 12.672 12.8v30.72a12.672 12.672 0 1 1-25.344 0v-30.72a12.73344 12.73344 0 0 1 12.672-12.8z m0-61.44h25.344a12.8 12.8 0 0 1 0 25.6h-25.344a12.8 12.8 0 0 1 0-25.6z m-387.75808-20.48a129.16736 129.16736 0 0 0-5.07392 35.84 126.55104 126.55104 0 0 0 245.3248 45.09696A162.816 162.816 0 0 1 500.25984 558.08H425.8304a25.6 25.6 0 0 1 0-51.2h177.408a25.6 25.6 0 0 1 0 51.2h-64.42496a159.7952 159.7952 0 0 1-1.21344 72.61184A126.57664 126.57664 0 0 0 785.7152 593.92a129.09056 129.09056 0 0 0-5.07392-35.84h32.06656a163.38944 163.38944 0 0 1 3.42016 33.28 159.3856 159.3856 0 0 1-296.5248 83.09248A159.3856 159.3856 0 0 1 223.0784 591.36a163.46112 163.46112 0 0 1 3.42016-33.28h37.13024z" fill="#37BEF0" p-id="5074"></path></svg>